<svg width="20" height="20" viewBox="0 0 20 20" fill="currentColor"
         xmlns="http://www.w3.org/2000/svg"
         class="shrink-0 text-gray-700 dark:text-gray-300 group-hover:text-sky-500 transition-all relative z-10"
         aria-hidden="true">
      <path fill-rule="evenodd" clip-rule="evenodd" d="M6.35352 3.1464L9.35352 6.14642C9.43935 6.25103 9.5 6.36003 9.5 6.50091C9.4998 6.6332 9.44704 6.75988 9.35352 6.85346L6.35352 9.85347C6.14584 10.0609 5.85611 10.0243 5.64648 9.85347L2.64648 6.85346C2.55296 6.75988 2.5002 6.6332 2.5 6.50091C2.5 6.36841 2.55285 6.24017 2.64648 6.14642L5.64648 3.1464C5.8552 2.97421 6.14635 2.93936 6.35352 3.1464ZM6 8.79194L3.70703 6.49994L6 4.20696L8.29297 6.49994L6 8.79194Z"></path>
      <path class="group-hover:-rotate-90 transition-transform duration-200 ease-out" style="transform-origin: 14px 6.5px 0px;" d="M16.8984 3.7509C16.9875 3.90632 16.986 4.09826 16.8955 4.25286L15.5791 6.49994L16.8955 8.74702C16.986 8.90159 16.9874 9.09354 16.8984 9.24898C16.8093 9.40436 16.643 9.49996 16.4638 9.49996H11.5C11.3198 9.49996 11.1532 9.4028 11.0644 9.24605C10.976 9.08949 10.9789 8.89736 11.0713 8.74312L12.417 6.49994L11.0713 4.25676C10.9789 4.1025 10.976 3.91037 11.0644 3.75383C11.1532 3.59717 11.3199 3.49992 11.5 3.49992H16.4638C16.6429 3.51309 16.8055 3.58909 16.8984 3.7509ZM13.4287 6.2431C13.5152 6.4107 13.5166 6.58638 13.4287 6.75678L12.3828 8.49995H15.5918L14.5683 6.75287C14.477 6.59683 14.477 6.40303 14.5683 6.24701L15.5918 4.49993H12.3828L13.4287 6.2431Z"></path>
      <path class="group-hover:rotate-[120deg] transition-transform duration-200 ease-out" style="transform-origin: 6px 14px 0px;" fill-rule="evenodd" clip-rule="evenodd" d="M7.25293 10.9668C7.40708 10.8793 7.59647 10.8801 7.75 10.9687C7.90356 11.0574 7.99869 11.2211 8 11.3984L8.01074 12.8388L9.30762 13.6054C9.42811 13.6994 9.49994 13.8448 9.5 14C9.5 14.1773 9.40587 14.3418 9.25293 14.4316L8.01074 15.1601L7.99512 16.667C7.97406 16.8184 7.88446 16.9536 7.75 17.0312C7.59642 17.1199 7.40713 17.1207 7.25293 17.0332L6 16.3203L4.74707 17.0332C4.59287 17.1207 4.40358 17.1199 4.25 17.0312C4.09643 16.9425 4.00124 16.7789 4 16.6015L3.99023 15.1601L2.74707 14.4316C2.59413 14.3418 2.5 14.1773 2.5 14C2.50006 13.8448 2.57188 13.6994 2.69238 13.6054L3.99023 12.8388L4 11.3984C4.00131 11.2211 4.09644 11.0574 4.25 10.9687C4.40353 10.8801 4.59292 10.8793 4.74707 10.9668L6 11.6787L7.25293 10.9668ZM4.99512 12.2568L5.75293 12.6884C5.90608 12.7754 6.09392 12.7754 6.24707 12.6884L7.00586 12.2568L7.01172 13.1308C7.01308 13.3068 7.10706 13.4695 7.25879 13.5586L8.01172 14L7.25879 14.4414C7.10706 14.5304 7.01315 14.6932 7.01172 14.8691L7.00586 15.7422L6.24707 15.3115C6.09397 15.2246 5.90603 15.2246 5.75293 15.3115L4.99512 15.7422L4.98828 14.8691C4.98703 14.7152 4.91459 14.5716 4.79492 14.4785L3.98926 14L4.74121 13.5586C4.87421 13.4805 4.96267 13.3457 4.9834 13.1953L4.99512 12.2568Z"></path>
      <path fill-rule="evenodd" clip-rule="evenodd" d="M14 11C15.6568 11 16.9999 12.3432 17 14C17 15.6568 15.6569 17 14 17C12.3431 17 11 15.6568 11 14C11.0001 12.3432 12.3432 11 14 11ZM12 14C12.0001 12.8955 12.8955 12 14 12C15.1045 12 15.9999 12.8955 16 14C16 15.1045 15.1046 16 14 16C12.8954 16 12 15.1045 12 14Z"></path>
    </svg>