<svg width="20" height="20" viewBox="0 0 20 20" fill="currentColor" xmlns="http://www.w3.org/2000/svg" class="text-gray-700 group-hover:text-sky-500 transition-all">
      <path class="transition-transform group-hover:scale-95 origin-center" d="M15.8198 7C16.6885 7.00025 17.3624 7.73158 17.3178 8.57617L17.2993 8.74707L16.1332 15.7471C16.0126 16.4699 15.3865 16.9996 14.6538 17H5.34711C4.6142 16.9998 3.98833 16.47 3.86762 15.7471L2.7016 8.74707C2.54922 7.83277 3.25418 7 4.18109 7H15.8198ZM4.18109 8C3.87216 8 3.63722 8.27731 3.68793 8.58203L4.85394 15.582C4.89413 15.8229 5.10291 15.9998 5.34711 16H14.6538C14.8978 15.9996 15.1068 15.8228 15.1469 15.582L16.3129 8.58203L16.3188 8.46973C16.3036 8.21259 16.0899 8.00023 15.8198 8H4.18109Z"></path>
      <path class="transition-transform group-hover:-translate-y-[1.4px] group-hover:translate-x-[0.5px] group-hover:rotate-3 group-active:translate-y-0" d="M16.0004 5.5C16.0004 5.224 15.7764 5.00024 15.5004 5H4.50043C4.22428 5 4.00043 5.22386 4.00043 5.5C4.00043 5.77614 4.22428 6 4.50043 6H15.5004C15.7764 5.99976 16.0004 5.776 16.0004 5.5Z"></path>
      <path class="transition-transform group-hover:-translate-y-[2.8px] group-hover:translate-x-px group-hover:rotate-6 group-active:translate-y-0" d="M14.5004 3.5C14.5004 3.224 14.2764 3.00024 14.0004 3H6.00043C5.72428 3 5.50043 3.22386 5.50043 3.5C5.50043 3.77614 5.72428 4 6.00043 4H14.0004C14.2764 3.99976 14.5004 3.776 14.5004 3.5Z"></path>
    </svg>